<!-- Created with Inkscape (http://www.inkscape.org/) -->
<svg id="svg5" width="112.64mm" height="112.64mm" version="1.1" viewBox="0 0 112.64 112.64" xmlns="http://www.w3.org/2000/svg" xmlns:xlink="http://www.w3.org/1999/xlink">
 <g id="layer1" transform="translate(-21.026 -86.932)">
  <g id="drone" transform="rotate(-.69943 -392.87 -2904.6)">
   <g id="g1042">
    <circle id="circle119616" cx="2.2172" cy="148.79" r="15.424" fill="#fff" stroke="#26265a" stroke-linecap="round" stroke-linejoin="round" stroke-width="1.5875"/>
    <circle id="circle48638" transform="scale(-1,1)" cx="-77.99" cy="148.79" r="15.424" fill="#fff" stroke="#26265a" stroke-linecap="round" stroke-linejoin="round" stroke-width="1.5875"/>
    <path id="path118670" d="m69.624 157.46a11.844 11.844 0 0 1-3.7766-8.6718 11.844 11.844 0 0 1 3.7766-8.6718" fill="none" stroke="#26265a" stroke-linecap="round" stroke-linejoin="round" stroke-width=".79375"/>
    <use id="use118672" transform="matrix(-1 0 0 1 155.68 4.073e-6)" width="100%" height="100%" xlink:href="#path116533"/>
    <path id="path116214" d="m90.528 161.76a18.037 18.037 0 0 0 5.4993-12.967 18.037 18.037 0 0 0-5.4993-12.967" fill="none" stroke="#26265a" stroke-linecap="round" stroke-linejoin="round" stroke-width=".79375"/>
    <path id="circle116299" d="m69.922 140.12a11.844 11.844 0 0 0-3.7763 8.6715v0a11.844 11.844 0 0 0 3.7772 8.6723" fill="none" stroke="#26265a" stroke-linecap="round" stroke-linejoin="round" stroke-width=".79375"/>
    <path id="use116538" d="m68.783 138.98a13.455 13.455 0 0 0-4.2474 9.811v0a13.455 13.455 0 0 0 4.2477 9.8113" fill="none" stroke="#26265a" stroke-linecap="round" stroke-linejoin="round" stroke-width=".79375"/>
    <path id="path116533" d="m87.198 158.6a13.455 13.455 0 0 0 4.2471-9.8108 13.455 13.455 0 0 0-4.2471-9.8108" fill="none" stroke="#26265a" stroke-linecap="round" stroke-linejoin="round" stroke-width=".79375"/>
    <path id="path116526" d="m86.058 157.46a11.844 11.844 0 0 0 3.7766-8.6718 11.844 11.844 0 0 0-3.7766-8.6718" fill="none" stroke="#26265a" stroke-linecap="round" stroke-linejoin="round" stroke-width=".79375"/>
    <use id="use116542" width="100%" height="100%" xlink:href="#path116533"/>
    <path id="path119618" d="m10.584 157.46a11.844 11.844 0 0 0 3.7766-8.6718 11.844 11.844 0 0 0-3.7766-8.6718" fill="none" stroke="#26265a" stroke-linecap="round" stroke-linejoin="round" stroke-width=".79375"/>
    <use id="use119620" transform="translate(-75.474)" width="100%" height="100%" xlink:href="#path116533"/>
    <path id="path119624" d="m-10.32 161.76a18.037 18.037 0 0 1-5.4993-12.967 18.037 18.037 0 0 1 5.4993-12.967" fill="none" stroke="#26265a" stroke-linecap="round" stroke-linejoin="round" stroke-width=".79375"/>
    <path id="path119628" d="m10.285 140.12a11.844 11.844 0 0 1 3.7763 8.6715v0a11.844 11.844 0 0 1-3.7772 8.6723" fill="none" stroke="#26265a" stroke-linecap="round" stroke-linejoin="round" stroke-width=".79375"/>
    <path id="path119630" d="m11.425 138.98a13.455 13.455 0 0 1 4.2474 9.811v0a13.455 13.455 0 0 1-4.2477 9.8113" fill="none" stroke="#26265a" stroke-linecap="round" stroke-linejoin="round" stroke-width=".79375"/>
    <path id="path119632" d="m-6.9907 158.6a13.455 13.455 0 0 1-4.2471-9.8108 13.455 13.455 0 0 1 4.2471-9.8108" fill="none" stroke="#26265a" stroke-linecap="round" stroke-linejoin="round" stroke-width=".79375"/>
    <path id="path119634" d="m-5.8505 157.46a11.844 11.844 0 0 1-3.7766-8.6718 11.844 11.844 0 0 1 3.7766-8.6718" fill="none" stroke="#26265a" stroke-linecap="round" stroke-linejoin="round" stroke-width=".79375"/>
    <use id="use119636" transform="matrix(-1 0 0 1 80.208 4.073e-6)" width="100%" height="100%" xlink:href="#path116533"/>
    <circle id="circle119702" transform="matrix(0,-1,-1,0,0,0)" cx="-186.68" cy="-42.333" r="15.424" fill="#fff" stroke="#26265a" stroke-linecap="round" stroke-linejoin="round" stroke-width="1.5875"/>
    <path id="path119704" d="m33.662 178.31a11.844 11.844 0 0 1 8.6718-3.7766 11.844 11.844 0 0 1 8.6718 3.7766" fill="none" stroke="#26265a" stroke-linecap="round" stroke-linejoin="round" stroke-width=".79375"/>
    <use id="use119706" transform="matrix(0 -1 -1 0 191.12 264.37)" width="100%" height="100%" xlink:href="#path116533"/>
    <path id="path119710" d="m29.366 199.21a18.037 18.037 0 0 0 12.967 5.4994 18.037 18.037 0 0 0 12.967-5.4994" fill="none" stroke="#26265a" stroke-linecap="round" stroke-linejoin="round" stroke-width=".79375"/>
    <path id="path119714" d="m51.005 178.61a11.844 11.844 0 0 0-8.6715-3.7763v0a11.844 11.844 0 0 0-8.6723 3.7772" fill="none" stroke="#26265a" stroke-linecap="round" stroke-linejoin="round" stroke-width=".79375"/>
    <path id="path119716" d="m52.144 177.47a13.455 13.455 0 0 0-9.811-4.2474v0a13.455 13.455 0 0 0-9.8113 4.2477" fill="none" stroke="#26265a" stroke-linecap="round" stroke-linejoin="round" stroke-width=".79375"/>
    <path id="path119718" d="m32.523 195.88a13.455 13.455 0 0 0 9.8108 4.2471 13.455 13.455 0 0 0 9.8108-4.2471" fill="none" stroke="#26265a" stroke-linecap="round" stroke-linejoin="round" stroke-width=".79375"/>
    <path id="path119720" d="m33.662 194.74a11.844 11.844 0 0 0 8.6718 3.7766 11.844 11.844 0 0 0 8.6718-3.7766" fill="none" stroke="#26265a" stroke-linecap="round" stroke-linejoin="round" stroke-width=".79375"/>
    <use id="use119722" transform="rotate(90 41.219 149.9)" width="100%" height="100%" xlink:href="#path116533"/>
    <circle id="circle119730" transform="rotate(90)" cx="110.9" cy="-42.333" r="15.424" fill="#fff" stroke="#26265a" stroke-linecap="round" stroke-linejoin="round" stroke-width="1.5875"/>
    <path id="path119732" d="m33.662 119.27a11.844 11.844 0 0 0 8.6718 3.7766 11.844 11.844 0 0 0 8.6718-3.7766" fill="none" stroke="#26265a" stroke-linecap="round" stroke-linejoin="round" stroke-width=".79375"/>
    <use id="use119734" transform="rotate(90 78.956 112.17)" width="100%" height="100%" xlink:href="#path116533"/>
    <path id="path119738" d="m29.366 98.365a18.037 18.037 0 0 1 12.967-5.4993 18.037 18.037 0 0 1 12.967 5.4993" fill="none" stroke="#26265a" stroke-linecap="round" stroke-linejoin="round" stroke-width=".79375"/>
    <path id="path119742" d="m51.005 118.97a11.844 11.844 0 0 1-8.6715 3.7763v0a11.844 11.844 0 0 1-8.6723-3.7772" fill="none" stroke="#26265a" stroke-linecap="round" stroke-linejoin="round" stroke-width=".79375"/>
    <path id="path119744" d="m52.144 120.11a13.455 13.455 0 0 1-9.811 4.2474v0a13.455 13.455 0 0 1-9.8113-4.2477" fill="none" stroke="#26265a" stroke-linecap="round" stroke-linejoin="round" stroke-width=".79375"/>
    <path id="path119746" d="m32.523 101.69a13.455 13.455 0 0 1 9.8108-4.2471 13.455 13.455 0 0 1 9.8108 4.2471" fill="none" stroke="#26265a" stroke-linecap="round" stroke-linejoin="round" stroke-width=".79375"/>
    <path id="path119748" d="m33.662 102.83a11.844 11.844 0 0 1 8.6718-3.7766 11.844 11.844 0 0 1 8.6718 3.7766" fill="none" stroke="#26265a" stroke-linecap="round" stroke-linejoin="round" stroke-width=".79375"/>
    <use id="use119750" transform="matrix(0 -1 -1 0 191.12 188.89)" width="100%" height="100%" xlink:href="#path116533"/>
    <path id="path983" transform="matrix(.26458 0 0 .26458 44.979 35.018)" d="m170 430c0 69.094-101.87-19.583-150.73 29.274s39.82 150.73-29.274 150.73c-69.094 0 19.583-101.87-29.274-150.73-48.857-48.857-150.73 39.82-150.73-29.274s101.87 19.583 150.73-29.274c48.857-48.857-39.82-150.73 29.274-150.73 69.094 0-19.583 101.87 29.274 150.73 48.857 48.857 150.73-39.82 150.73 29.274z" fill="#58a758" fill-rule="evenodd" stroke="#26265a" stroke-linecap="round" stroke-linejoin="round" stroke-width="7.5"/>
    <g id="g120044" fill="#26265a" stroke-width="0">
     <circle id="circle2317" transform="scale(-1,1)" cx="-77.99" cy="148.79" r="1.6698"/>
     <circle id="circle119638" cx="2.2172" cy="148.79" r="1.6698"/>
     <circle id="circle119724" transform="matrix(0,-1,-1,0,0,0)" cx="-186.68" cy="-42.333" r="1.6698"/>
     <circle id="circle119752" transform="rotate(90)" cx="110.9" cy="-42.333" r="1.6698"/>
    </g>
   </g>
  </g>
 </g>
</svg>
